<?xml version="1.0" encoding="UTF-8" standalone="no"?>
<!-- Created with Inkscape (http://www.inkscape.org/) -->

<svg
   width="1280"
   height="550"
   viewBox="0 0 1280 550"
   version="1.1"
   id="svg1"
   xml:space="preserve"
   xmlns:xlink="http://www.w3.org/1999/xlink"
   xmlns="http://www.w3.org/2000/svg"
   xmlns:svg="http://www.w3.org/2000/svg"
   xmlns:rdf="http://www.w3.org/1999/02/22-rdf-syntax-ns#"
   xmlns:cc="http://creativecommons.org/ns#"
   xmlns:dc="http://purl.org/dc/elements/1.1/"><title
     id="title5">Emmanuel Ruiz - Logo</title><defs
     id="defs1"><color-profile
       name="sRGB"
       xlink:href="file:///usr/share/color/icc/colord/sRGB.icc"
       id="color-profile2" /></defs><metadata
     id="metadata5"><rdf:RDF><cc:Work
         rdf:about=""><dc:title>Emmanuel Ruiz - Logo</dc:title><dc:creator><cc:Agent><dc:title>bitor</dc:title></cc:Agent></dc:creator><dc:date>2069</dc:date><dc:rights><cc:Agent><dc:title>derechos reservados o nes</dc:title></cc:Agent></dc:rights><dc:language>espanglish</dc:language></cc:Work></rdf:RDF></metadata><g
     id="layer1"
     transform="matrix(1.3692208,0,0,1.3692208,-44.610195,-409.6104)"><path
       d="m 512.48649,300.61201 c -9.47231,3.34499 -19.16344,17.66287 -24.9156,36.82631 -2.56346,8.59698 -3.87646,16.03727 -4.43917,25.19696 -0.6565,10.91034 0.53145,20.85157 6.84632,57.58411 l 0.56271,3.21994 -7.3465,7.56535 c -17.22521,17.75665 -23.94648,25.22822 -31.35552,34.91936 -12.06703,15.78716 -18.88208,29.94872 -21.53933,44.79805 -2.46967,13.78643 -0.71901,31.51183 4.53295,45.986 9.12843,25.0719 26.85382,42.01577 50.01878,47.8617 6.00224,1.53184 10.19131,2.06328 17.50656,2.25084 7.31524,0.18758 13.53633,-0.3126 19.81993,-1.56307 2.34464,-0.46892 3.56384,-0.62524 3.62637,-0.40641 0.28135,0.87534 3.43879,19.81995 4.68925,27.8542 3.47006,22.53973 3.75141,30.76155 1.25047,38.20185 -3.31374,9.8787 -11.03538,16.88134 -21.66437,19.6949 -3.87645,1.03163 -10.7853,1.18793 -14.25535,0.3126 -4.97062,-1.25046 -8.75328,-3.97023 -10.5352,-7.59659 -0.56271,-1.09417 -0.9066,-2.09453 -0.81281,-2.18832 0.0938,-0.0938 1.09416,-0.37514 2.25084,-0.59399 6.00225,-1.28171 11.53559,-5.62711 14.22409,-11.25422 1.50056,-3.1887 1.9695,-5.15819 1.9695,-8.72203 0,-8.40938 -5.03315,-15.7559 -13.00488,-18.94461 -11.78568,-4.72051 -24.75929,1.84446 -28.63576,14.44293 -1.84443,6.03352 -2.06327,14.31787 -0.53144,18.85082 4.62672,13.47382 22.38339,24.22786 41.45305,25.04065 18.50695,0.81281 32.54346,-8.19057 37.95175,-24.38416 2.09453,-6.31486 3.00112,-14.38038 2.40714,-21.94573 -0.65649,-8.44067 -3.31374,-25.38451 -7.00263,-44.5167 l -1.37551,-7.03389 0.96911,-0.43767 c 8.78454,-4.06401 13.44254,-7.09641 18.56947,-12.03575 1.96948,-1.90698 4.53295,-4.75179 5.68963,-6.31489 13.53633,-17.97548 15.16194,-44.17282 4.06403,-64.77429 -2.25084,-4.15781 -5.34576,-8.2531 -9.0659,-11.97325 -6.40866,-6.40865 -13.28623,-10.22257 -22.03952,-12.19207 -3.97024,-0.90658 -12.56722,-1.15668 -17.00638,-0.46892 -1.78192,0.28135 -3.28248,0.46892 -3.34501,0.4064 -0.0625,-0.0625 -4.97061,-23.94648 -6.84632,-33.29374 l -1.12541,-5.68964 3.84519,-4.1578 c 13.31749,-14.22409 21.3205,-27.26024 26.57246,-43.17246 4.87684,-14.75553 6.75254,-28.79205 6.40866,-47.70539 -0.21884,-12.44217 -1.15668,-20.44518 -3.50132,-29.98 -5.31449,-21.66439 -14.9431,-33.13743 -24.88433,-29.66738 z m 11.81694,35.51331 c 3.97023,2.03202 6.22107,7.53408 6.56496,16.16232 0.4064,9.40978 -1.59436,17.91297 -6.43992,27.82295 -4.84557,9.81618 -11.97325,19.66362 -23.25872,32.01201 l -4.12655,4.53295 -0.37515,-2.03202 c -0.62523,-3.43879 -1.93822,-13.69263 -2.28211,-17.63161 -0.34387,-4.15781 0,-11.8482 0.81281,-17.97549 2.1258,-16.38115 7.69039,-30.19884 15.28699,-38.01427 4.9081,-5.00188 10.00375,-6.81506 13.81769,-4.87684 z m -25.5721,130.26763 c 0.56271,2.75103 2.1258,10.69151 3.50132,17.63162 2.53219,12.72353 2.56345,13.12993 1.43803,13.16119 -0.15631,0 -1.81318,0.78155 -3.68889,1.7194 -11.69187,5.81467 -20.63274,15.44329 -25.322,27.22896 -3.25122,8.2531 -3.65762,18.10055 -1.0629,26.32239 0.96912,3.03237 3.34502,7.75288 5.34576,10.56644 3.1887,4.50169 8.94086,9.84745 14.3804,13.34878 2.71977,1.75064 9.316,5.22069 9.94122,5.22069 0.2501,0 0.7503,-0.43765 1.12543,-0.93785 l 0.65649,-0.93786 -3.37626,-3.37626 c -7.31525,-7.22146 -11.44179,-14.59921 -12.75479,-22.66474 -0.56271,-3.40754 -0.59397,-5.40829 -0.12504,-8.44067 1.28173,-8.69076 6.03351,-16.13106 13.3175,-20.88284 2.00074,-1.28173 6.43992,-3.40752 7.19019,-3.40752 0.15631,0 0.6565,1.93822 1.09416,4.28285 0.46893,2.37589 2.31337,11.75442 4.12655,20.88283 4.37664,22.1333 9.62862,49.61237 9.47231,49.73741 -0.0626,0.0938 -1.43805,0.46893 -3.06366,0.87534 -9.81618,2.50092 -20.82031,2.50092 -30.48018,0 -17.4753,-4.50169 -30.60523,-14.50545 -37.76416,-28.82332 -4.37665,-8.78454 -6.3774,-19.10091 -6.03352,-31.16794 0.31262,-11.12917 2.12579,-18.66325 6.62748,-27.82294 3.93899,-8.06553 8.12805,-13.7239 16.41241,-22.16457 2.84483,-2.90734 8.03427,-7.81542 11.53558,-10.9416 14.66175,-13.00488 16.41241,-14.5367 16.47493,-14.47419 0.0313,0.0313 0.50018,2.31337 1.03164,5.0644 z m 26.97887,54.20784 c 8.31562,2.15707 15.47455,7.78417 20.2576,15.97474 3.81393,6.53371 5.68964,13.75517 5.68964,21.88322 -0.0313,10.7853 -3.37627,19.60111 -10.31638,26.94761 -2.62598,2.75103 -8.50319,7.22146 -8.97211,6.75253 -0.1563,-0.15631 -0.68776,-2.71977 -4.97061,-23.69639 -3.59511,-17.63162 -9.81618,-47.45531 -10.06628,-48.26811 -0.18757,-0.56271 -0.0626,-0.59397 2.87608,-0.40641 1.71939,0.0938 4.18907,0.46894 5.50206,0.81281 z"
       id="path1"
       style="fill:#ebdbb2;stroke:none;stroke-width:0.0312617" /></g><g
     id="layer2"
     style="fill:#ebdbb2;fill-opacity:1"
     transform="matrix(1.3692208,0,0,1.3692208,-44.610195,-354.79041)"><path
       id="path1873"
       style="fill:#ebdbb2;fill-opacity:1;fill-rule:evenodd;stroke:none;stroke-width:1.09973px;stroke-linecap:butt;stroke-linejoin:miter;stroke-opacity:1"
       d="m 201.47408,331.31016 c -25.19803,-17.83451 -73.69037,-46.60614 -77.22707,-48.79734 -3.5367,-2.19121 -19.23126,-10.80361 -36.23468,-10.88718 -17.003415,-0.0836 -31.779017,10.5529 -31.779017,10.5529 -0.174419,0.21251 3.428238,-2.87715 12.56678,4.62278 9.138549,7.49993 6.619,23.57118 1.037662,30.37196 -5.581347,6.80077 -21.299376,13.81845 -31.500542,5.44643 -10.201154,-8.37201 -4.640316,-27.28228 -0.105465,-32.80791 4.534839,-5.52563 11.86035,-14.45165 21.114702,-19.66068 9.254353,-5.20903 34.52059,-13.46007 54.90241,-8.82554 20.38182,4.63453 40.61047,14.65619 69.25289,31.76079 28.64241,17.10462 72.39634,45.89979 97.5944,63.7343 25.19805,17.8345 76.28154,46.59868 79.81825,48.78989 3.53669,2.1912 19.23125,10.8036 36.23468,10.88717 17.00341,0.0836 31.77902,-10.5529 31.77902,-10.5529 0.17441,-0.21252 -3.42824,2.87715 -12.56679,-4.62279 -9.13854,-7.49992 -6.619,-23.57116 -1.03767,-30.37195 5.58135,-6.80078 21.29938,-13.81844 31.50055,-5.44644 10.20116,8.37202 4.64031,27.28229 0.10546,32.80792 -4.53483,5.52563 -11.86034,14.45165 -21.11469,19.66068 -9.25436,5.20904 -34.52059,13.46007 -54.90242,8.82554 -20.38182,-4.63453 -40.61047,-14.65619 -69.25289,-31.7608 -12.88559,-7.69499 -80.0881,-50.07834 -100.18557,-63.72683 z" /><path
       id="path5"
       style="fill:#ebdbb2;fill-opacity:0.67;fill-rule:evenodd;stroke:none;stroke-width:0.866538px;stroke-linecap:butt;stroke-linejoin:miter;stroke-opacity:1"
       d="m 206.9946,441.04321 c -21.87645,-10.63578 -63.26519,-26.78897 -66.2957,-28.03921 -3.0305,-1.25027 -16.33632,-5.93437 -29.5665,-3.81989 -13.23021,2.11443 -23.354287,12.27781 -23.354287,12.27781 -0.108364,0.18758 2.296529,-2.67628 10.362707,1.98326 8.06618,4.65953 8.1673,17.47725 4.69974,23.47999 -3.46757,6.00272 -14.788205,13.47337 -23.792309,8.27204 -9.004096,-5.20136 -7.104628,-20.61611 -4.287204,-25.49333 2.817393,-4.87723 7.368574,-12.75582 13.895786,-17.99183 6.527217,-5.23601 25.113107,-14.88943 41.553207,-13.89875 16.44009,0.99067 33.45161,6.18926 57.91237,15.8161 24.46075,9.62684 62.16857,26.40568 84.04504,37.04148 21.87645,10.63579 65.27876,26.45105 68.30927,27.7013 3.03051,1.25025 16.33632,5.93435 29.56651,3.81989 13.2302,-2.11443 23.35428,-12.27782 23.35428,-12.27782 0.10836,-0.18758 -2.29653,2.67627 -10.36271,-1.98326 -8.06618,-4.65954 -8.16731,-17.47724 -4.69976,-23.47999 3.46758,-6.00273 14.78822,-13.47337 23.79233,-8.27205 9.00409,5.20137 7.10461,20.61612 4.28721,25.49334 -2.81738,4.87721 -7.36856,12.75582 -13.89576,17.99182 -6.52722,5.23603 -25.11313,14.88944 -41.55322,13.89876 -16.4401,-0.99067 -33.4516,-6.18926 -57.91237,-15.8161 -11.00437,-4.33091 -68.68421,-28.66845 -86.05862,-36.70356 z" /><path
       id="path6"
       style="fill:#ebdbb2;fill-opacity:0.33;fill-rule:evenodd;stroke:none;stroke-width:0.564022px;stroke-linecap:butt;stroke-linejoin:miter;stroke-opacity:1"
       d="m 271.535,541.00188 c -15.64382,-2.43926 -44.48274,-4.58454 -46.60724,-4.78361 -2.12449,-0.1991 -11.29853,-0.57213 -19.12691,3.27071 -7.82839,3.8428 -12.1866,12.10061 -12.1866,12.10061 -0.0316,0.13742 0.91778,-2.10394 6.82685,-0.74535 5.90908,1.35857 8.42035,9.31487 7.40931,13.71232 -1.01104,4.39744 -6.62814,11.20832 -13.22431,9.69177 -6.59616,-1.51656 -8.35866,-11.47095 -7.53718,-15.0439 0.82146,-3.57292 2.14845,-9.34458 5.20976,-13.84937 3.0613,-4.50481 12.78213,-14.06162 23.20096,-16.58545 10.41878,-2.52384 21.99693,-2.53851 39.05607,-1.22068 17.05915,1.31782 43.72717,4.55551 59.37102,6.99478 15.64383,2.43927 45.6711,3.98967 47.7956,4.18875 2.1245,0.19908 11.29854,0.57212 19.12691,-3.27072 7.82839,-3.84279 12.1866,-12.10062 12.1866,-12.10062 0.0316,-0.13742 -0.91778,2.10394 -6.82686,0.74536 -5.90907,-1.35857 -8.42034,-9.31487 -7.40931,-13.71232 1.01104,-4.39745 6.62815,-11.20832 13.22432,-9.69178 6.59617,1.51657 8.35866,11.47096 7.53718,15.0439 -0.82145,3.57292 -2.14844,9.34457 -5.20973,13.84937 -3.06131,4.50481 -12.78215,14.06162 -23.20097,16.58546 -10.4188,2.52384 -21.99693,2.53851 -39.05608,1.22068 -7.67454,-0.59286 -48.21364,-4.71892 -60.55938,-6.39991 z" /></g><g
     id="g12"
     style="fill:#ebdbb2;fill-opacity:1"
     transform="matrix(-1.3692208,0,0,1.3692208,1324.6102,-354.79041)"><path
       id="path10"
       style="fill:#ebdbb2;fill-opacity:1;fill-rule:evenodd;stroke:none;stroke-width:1.09973px;stroke-linecap:butt;stroke-linejoin:miter;stroke-opacity:1"
       d="m 201.47408,331.31016 c -25.19803,-17.83451 -73.69037,-46.60614 -77.22707,-48.79734 -3.5367,-2.19121 -19.23126,-10.80361 -36.23468,-10.88718 -17.003415,-0.0836 -31.779017,10.5529 -31.779017,10.5529 -0.174419,0.21251 3.428238,-2.87715 12.56678,4.62278 9.138549,7.49993 6.619,23.57118 1.037662,30.37196 -5.581347,6.80077 -21.299376,13.81845 -31.500542,5.44643 -10.201154,-8.37201 -4.640316,-27.28228 -0.105465,-32.80791 4.534839,-5.52563 11.86035,-14.45165 21.114702,-19.66068 9.254353,-5.20903 34.52059,-13.46007 54.90241,-8.82554 20.38182,4.63453 40.61047,14.65619 69.25289,31.76079 28.64241,17.10462 72.39634,45.89979 97.5944,63.7343 25.19805,17.8345 76.28154,46.59868 79.81825,48.78989 3.53669,2.1912 19.23125,10.8036 36.23468,10.88717 17.00341,0.0836 31.77902,-10.5529 31.77902,-10.5529 0.17441,-0.21252 -3.42824,2.87715 -12.56679,-4.62279 -9.13854,-7.49992 -6.619,-23.57116 -1.03767,-30.37195 5.58135,-6.80078 21.29938,-13.81844 31.50055,-5.44644 10.20116,8.37202 4.64031,27.28229 0.10546,32.80792 -4.53483,5.52563 -11.86034,14.45165 -21.11469,19.66068 -9.25436,5.20904 -34.52059,13.46007 -54.90242,8.82554 -20.38182,-4.63453 -40.61047,-14.65619 -69.25289,-31.7608 -12.88559,-7.69499 -80.0881,-50.07834 -100.18557,-63.72683 z" /><path
       id="path11"
       style="fill:#ebdbb2;fill-opacity:0.67;fill-rule:evenodd;stroke:none;stroke-width:0.866538px;stroke-linecap:butt;stroke-linejoin:miter;stroke-opacity:1"
       d="m 206.9946,441.04321 c -21.87645,-10.63578 -63.26519,-26.78897 -66.2957,-28.03921 -3.0305,-1.25027 -16.33632,-5.93437 -29.5665,-3.81989 -13.23021,2.11443 -23.354287,12.27781 -23.354287,12.27781 -0.108364,0.18758 2.296529,-2.67628 10.362707,1.98326 8.06618,4.65953 8.1673,17.47725 4.69974,23.47999 -3.46757,6.00272 -14.788205,13.47337 -23.792309,8.27204 -9.004096,-5.20136 -7.104628,-20.61611 -4.287204,-25.49333 2.817393,-4.87723 7.368574,-12.75582 13.895786,-17.99183 6.527217,-5.23601 25.113107,-14.88943 41.553207,-13.89875 16.44009,0.99067 33.45161,6.18926 57.91237,15.8161 24.46075,9.62684 62.16857,26.40568 84.04504,37.04148 21.87645,10.63579 65.27876,26.45105 68.30927,27.7013 3.03051,1.25025 16.33632,5.93435 29.56651,3.81989 13.2302,-2.11443 23.35428,-12.27782 23.35428,-12.27782 0.10836,-0.18758 -2.29653,2.67627 -10.36271,-1.98326 -8.06618,-4.65954 -8.16731,-17.47724 -4.69976,-23.47999 3.46758,-6.00273 14.78822,-13.47337 23.79233,-8.27205 9.00409,5.20137 7.10461,20.61612 4.28721,25.49334 -2.81738,4.87721 -7.36856,12.75582 -13.89576,17.99182 -6.52722,5.23603 -25.11313,14.88944 -41.55322,13.89876 -16.4401,-0.99067 -33.4516,-6.18926 -57.91237,-15.8161 -11.00437,-4.33091 -68.68421,-28.66845 -86.05862,-36.70356 z" /><path
       id="path12"
       style="fill:#ebdbb2;fill-opacity:0.33;fill-rule:evenodd;stroke:none;stroke-width:0.564022px;stroke-linecap:butt;stroke-linejoin:miter;stroke-opacity:1"
       d="m 271.535,541.00188 c -15.64382,-2.43926 -44.48274,-4.58454 -46.60724,-4.78361 -2.12449,-0.1991 -11.29853,-0.57213 -19.12691,3.27071 -7.82839,3.8428 -12.1866,12.10061 -12.1866,12.10061 -0.0316,0.13742 0.91778,-2.10394 6.82685,-0.74535 5.90908,1.35857 8.42035,9.31487 7.40931,13.71232 -1.01104,4.39744 -6.62814,11.20832 -13.22431,9.69177 -6.59616,-1.51656 -8.35866,-11.47095 -7.53718,-15.0439 0.82146,-3.57292 2.14845,-9.34458 5.20976,-13.84937 3.0613,-4.50481 12.78213,-14.06162 23.20096,-16.58545 10.41878,-2.52384 21.99693,-2.53851 39.05607,-1.22068 17.05915,1.31782 43.72717,4.55551 59.37102,6.99478 15.64383,2.43927 45.6711,3.98967 47.7956,4.18875 2.1245,0.19908 11.29854,0.57212 19.12691,-3.27072 7.82839,-3.84279 12.1866,-12.10062 12.1866,-12.10062 0.0316,-0.13742 -0.91778,2.10394 -6.82686,0.74536 -5.90907,-1.35857 -8.42034,-9.31487 -7.40931,-13.71232 1.01104,-4.39745 6.62815,-11.20832 13.22432,-9.69178 6.59617,1.51657 8.35866,11.47096 7.53718,15.0439 -0.82145,3.57292 -2.14844,9.34457 -5.20973,13.84937 -3.06131,4.50481 -12.78215,14.06162 -23.20097,16.58546 -10.4188,2.52384 -21.99693,2.53851 -39.05608,1.22068 -7.67454,-0.59286 -48.21364,-4.71892 -60.55938,-6.39991 z" /></g></svg>
